<svg xmlns="http://www.w3.org/2000/svg" xmlns:xlink="http://www.w3.org/1999/xlink" width="500" zoomAndPan="magnify" viewBox="0 0 375 374.999991" height="500" preserveAspectRatio="xMidYMid meet" version="1.0"><defs><clipPath id="b9788ffa44"><path d="M 28.789062 11 L 160 11 L 160 195 L 28.789062 195 Z M 28.789062 11 " clip-rule="nonzero"/></clipPath><clipPath id="f3ec9694cf"><path d="M 55.769531 168.296875 L 89.082031 168.296875 L 89.082031 184.953125 L 55.769531 184.953125 Z M 55.769531 168.296875 " clip-rule="nonzero"/></clipPath><clipPath id="02e9229bba"><path d="M 80.753906 168.296875 C 85.351562 168.296875 89.082031 172.023438 89.082031 176.625 C 89.082031 181.222656 85.351562 184.953125 80.753906 184.953125 L 64.097656 184.953125 C 59.496094 184.953125 55.769531 181.222656 55.769531 176.625 C 55.769531 172.023438 59.496094 168.296875 64.097656 168.296875 Z M 80.753906 168.296875 " clip-rule="nonzero"/></clipPath><clipPath id="b3a0a663b5"><path d="M 0.769531 0.296875 L 34.082031 0.296875 L 34.082031 16.953125 L 0.769531 16.953125 Z M 0.769531 0.296875 " clip-rule="nonzero"/></clipPath><clipPath id="c811cb3b27"><path d="M 25.753906 0.296875 C 30.351562 0.296875 34.082031 4.023438 34.082031 8.625 C 34.082031 13.222656 30.351562 16.953125 25.753906 16.953125 L 9.097656 16.953125 C 4.496094 16.953125 0.769531 13.222656 0.769531 8.625 C 0.769531 4.023438 4.496094 0.296875 9.097656 0.296875 Z M 25.753906 0.296875 " clip-rule="nonzero"/></clipPath><clipPath id="80489c96e0"><rect x="0" width="35" y="0" height="17"/></clipPath></defs><g clip-path="url(#b9788ffa44)"><path fill="#ffffff" d="M 58.578125 71.121094 L 30.636719 48.617188 C 35.289062 41.785156 46.699219 27.082031 66.949219 18.601562 C 72.636719 16.242188 105.050781 2.683594 132.917969 21 C 135.636719 22.789062 155.277344 36.132812 159.179688 60.890625 C 161.648438 76.664062 156.496094 89.078125 154.421875 93.945312 C 150.628906 102.746094 145.191406 110.042969 115.390625 135.195312 C 107.304688 141.992188 96.855469 150.648438 84.371094 160.417969 C 100.003906 160.417969 115.640625 160.417969 131.238281 160.417969 C 134.886719 165.210938 139.359375 170.398438 144.867188 175.585938 C 147.480469 178.054688 150.054688 180.234375 152.523438 182.238281 C 146.65625 186.316406 140.824219 190.433594 134.957031 194.511719 L 28.882812 194.511719 L 28.882812 164.171875 L 102.652344 103.140625 C 119.394531 89.1875 123.761719 69.4375 116.355469 58.242188 C 109.808594 48.332031 95.785156 47.757812 93.671875 47.722656 C 79.648438 47.402344 66.019531 56.382812 58.578125 71.121094 Z M 58.578125 71.121094 " fill-opacity="1" fill-rule="nonzero"/></g><path fill="#ffffff" d="M 169.265625 64.074219 C 168.300781 58.742188 166.761719 52.480469 164.222656 45.683594 C 162.328125 40.566406 160.179688 36.0625 158.105469 32.234375 C 188.945312 9.585938 229.621094 6.902344 261.101562 25.398438 C 301.421875 49.117188 305.035156 94.910156 305.214844 97.667969 C 307.21875 130.652344 290.867188 162.492188 262.496094 180.628906 C 259.707031 180.558594 256.378906 180.738281 252.730469 181.523438 C 242.894531 183.671875 236.167969 189 232.734375 192.222656 C 227.582031 188.25 219.351562 182.917969 208.191406 179.734375 C 188.90625 174.191406 172.523438 178.234375 165.476562 180.414062 C 160.96875 177.804688 155.816406 174.296875 150.699219 169.503906 C 137.890625 157.519531 131.917969 143.886719 129.089844 135.625 C 132.882812 132.976562 136.960938 129.828125 141.148438 126.070312 C 146.335938 121.457031 150.59375 116.839844 154.097656 112.65625 C 161.898438 142.242188 187.117188 162.382812 214.34375 162.417969 C 234.449219 162.457031 254.125 151.542969 264.359375 134.015625 C 279.382812 108.21875 272.585938 70.585938 244.824219 53.304688 C 221.214844 38.78125 189.410156 42.964844 169.265625 64.074219 Z M 169.265625 64.074219 " fill-opacity="1" fill-rule="nonzero"/><path fill="#ffffff" d="M 146.371094 246.707031 L 118.429688 224.882812 C 122.867188 217.550781 132.882812 203.453125 150.914062 194.6875 C 171.484375 184.707031 205.722656 180.09375 227.902344 201.164062 C 241.820312 214.367188 247.542969 234.363281 245.324219 251.179688 C 242.570312 272.179688 227.722656 286.058594 200.175781 311.855469 C 189.195312 322.121094 179.320312 329.957031 172.234375 335.25 C 182.253906 335.25 192.269531 335.25 202.289062 335.25 C 204.578125 340.332031 208.546875 347.558594 215.203125 354.785156 C 221.679688 361.867188 228.367188 366.375 233.160156 369.09375 C 194.203125 369.09375 155.277344 369.09375 116.320312 369.09375 L 116.320312 338.183594 L 178.605469 287.742188 C 202 270.640625 210.550781 247.492188 203.324219 234.542969 C 198.675781 226.171875 188.40625 223.8125 186.867188 223.453125 C 172.378906 220.304688 155.671875 229.285156 146.371094 246.707031 Z M 146.371094 246.707031 " fill-opacity="1" fill-rule="nonzero"/><path fill="#ffffff" d="M 314.730469 236.367188 L 335.410156 206.816406 C 330.398438 202.34375 313.941406 188.820312 288.578125 186.820312 C 263.285156 184.816406 244.933594 195.476562 239.242188 199.089844 C 242.605469 203.097656 246.792969 208.890625 250.15625 216.582031 C 252.695312 222.378906 254.125 227.746094 254.914062 232.039062 C 257.8125 229.964844 271.085938 221.019531 289.007812 223.632812 C 302.816406 225.636719 311.652344 233.363281 314.730469 236.367188 Z M 314.730469 236.367188 " fill-opacity="1" fill-rule="nonzero"/><path fill="#ffffff" d="M 333.15625 275.21875 C 317.769531 253.933594 285.464844 245.882812 253.839844 257.726562 C 251.300781 265.882812 246.292969 278.582031 236.09375 291.605469 C 225.648438 304.914062 214.199219 312.890625 206.757812 317.292969 C 215.847656 345.875 239.960938 366.375 267.683594 369.023438 C 301.886719 372.316406 335.265625 347.914062 341.527344 317.292969 C 342.242188 313.964844 346.105469 293.179688 333.15625 275.21875 Z M 273.015625 337.039062 C 256.273438 337.039062 242.679688 325.019531 242.679688 310.207031 C 242.679688 295.398438 256.273438 283.375 273.015625 283.375 C 289.792969 283.375 303.355469 295.398438 303.355469 310.207031 C 303.355469 325.019531 289.792969 337.039062 273.015625 337.039062 Z M 273.015625 337.039062 " fill-opacity="1" fill-rule="nonzero"/><g clip-path="url(#f3ec9694cf)"><g clip-path="url(#02e9229bba)"><g transform="matrix(1, 0, 0, 1, 55, 168)"><g clip-path="url(#80489c96e0)"><g clip-path="url(#b3a0a663b5)"><g clip-path="url(#c811cb3b27)"><path fill="#ffffff" d="M 0.769531 0.296875 L 34.082031 0.296875 L 34.082031 16.953125 L 0.769531 16.953125 Z M 0.769531 0.296875 " fill-opacity="1" fill-rule="nonzero"/></g></g></g></g></g></g></svg>