<svg xmlns="http://www.w3.org/2000/svg" xmlns:xlink="http://www.w3.org/1999/xlink" width="1920" zoomAndPan="magnify" viewBox="0 0 1440 809.999993" height="1080" preserveAspectRatio="xMidYMid meet" version="1.0"><defs><clipPath id="bdf8c78a6c"><path d="M 622.734375 391.402344 L 649.933594 391.402344 L 649.933594 405 L 622.734375 405 Z M 622.734375 391.402344 " clip-rule="nonzero"/></clipPath><clipPath id="ac637c50c5"><path d="M 643.132812 391.402344 C 646.890625 391.402344 649.933594 394.445312 649.933594 398.199219 C 649.933594 401.957031 646.890625 405 643.132812 405 L 629.535156 405 C 625.78125 405 622.734375 401.957031 622.734375 398.199219 C 622.734375 394.445312 625.78125 391.402344 629.535156 391.402344 Z M 643.132812 391.402344 " clip-rule="nonzero"/></clipPath><clipPath id="139da1c3e0"><path d="M 0.734375 0.402344 L 27.933594 0.402344 L 27.933594 14 L 0.734375 14 Z M 0.734375 0.402344 " clip-rule="nonzero"/></clipPath><clipPath id="d4ef0d5e98"><path d="M 21.132812 0.402344 C 24.890625 0.402344 27.933594 3.445312 27.933594 7.199219 C 27.933594 10.957031 24.890625 14 21.132812 14 L 7.535156 14 C 3.78125 14 0.734375 10.957031 0.734375 7.199219 C 0.734375 3.445312 3.78125 0.402344 7.535156 0.402344 Z M 21.132812 0.402344 " clip-rule="nonzero"/></clipPath><clipPath id="0eb5fd7a32"><rect x="0" width="28" y="0" height="14"/></clipPath></defs><path fill="#ad8330" d="M 1365.515625 292.429688 C 1351.210938 283.59375 1335.640625 277.28125 1320.070312 272.652344 C 1313.335938 244.457031 1293.558594 218.789062 1264.945312 199.851562 C 1193.828125 152.722656 1097.464844 146.832031 1015.828125 161.558594 C 915.253906 180.074219 827.726562 237.304688 746.929688 298.742188 C 743.144531 297.058594 739.777344 294.953125 735.992188 293.269531 C 638.785156 243.617188 533.582031 188.070312 424.171875 172.5 C 356.003906 162.820312 278.996094 169.554688 224.289062 215.421875 C 200.304688 235.621094 182.628906 262.550781 174.214844 292.007812 C 108.566406 300.847656 48.394531 326.9375 20.621094 390.058594 C 0 436.34375 12.625 486.84375 45.445312 524.292969 C 82.898438 567.214844 140.128906 584.046875 195.253906 588.675781 C 369.46875 602.5625 509.175781 515.035156 640.46875 413.199219 C 654.355469 419.09375 667.820312 424.5625 681.707031 430.453125 C 729.257812 450.230469 777.230469 469.167969 825.621094 486.84375 C 750.71875 550.382812 672.027344 613.925781 571.457031 623.605469 C 509.597656 629.496094 450.261719 612.242188 397.664062 579.839844 C 384.617188 571.84375 372.835938 592.042969 385.878906 600.039062 C 480.140625 660.214844 592.496094 663.160156 691.804688 613.503906 C 751.140625 584.046875 800.792969 540.285156 849.609375 495.679688 C 920.726562 521.347656 992.683594 544.492188 1065.902344 563.851562 C 1163.53125 589.519531 1277.570312 604.667969 1365.9375 544.492188 C 1409.28125 515.035156 1440 467.90625 1438.316406 414.042969 C 1436.632812 363.546875 1408.441406 318.519531 1365.515625 292.429688 Z M 856.761719 243.617188 C 947.234375 180.074219 1060.851562 151.460938 1169.84375 175.023438 C 1217.8125 185.542969 1293.136719 217.105469 1308.289062 269.707031 C 1260.738281 259.1875 1209.398438 264.65625 1163.109375 276.859375 C 1083.996094 297.898438 1012.882812 339.140625 947.234375 387.53125 C 885.796875 368.175781 826.886719 339.558594 768.8125 310.101562 C 798.269531 286.960938 827.304688 264.65625 856.761719 243.617188 Z M 1311.234375 287.378906 C 1311.652344 295.796875 1310.390625 304.210938 1307.445312 313.46875 C 1291.457031 363.546875 1236.75 392.160156 1189.199219 403.523438 C 1135.757812 416.566406 1078.105469 414.464844 1023.824219 405.625 C 1004.464844 402.679688 985.527344 398.472656 967.011719 393.003906 C 971.222656 390.058594 975.429688 387.109375 979.636719 384.164062 C 1062.957031 326.515625 1166.894531 272.652344 1271.675781 280.226562 C 1284.722656 281.488281 1298.1875 284.011719 1311.234375 287.378906 Z M 382.09375 537.761719 C 281.941406 573.109375 81.214844 600.878906 34.925781 469.589844 C 13.046875 407.308594 58.492188 347.554688 114.039062 323.988281 C 132.132812 316.414062 151.070312 311.367188 170.425781 308 C 167.902344 322.308594 167.480469 337.035156 169.585938 352.183594 C 177.160156 403.101562 215.03125 441.816406 265.109375 453.175781 C 318.550781 465.382812 372.414062 448.128906 419.964844 423.722656 C 425.015625 421.195312 420.386719 413.621094 415.335938 416.148438 C 345.480469 450.652344 232.285156 468.328125 191.886719 382.0625 C 180.527344 358.074219 178.84375 331.566406 184.3125 306.316406 C 226.816406 301.265625 271.421875 304.632812 312.660156 310.101562 C 417.859375 324.410156 517.59375 362.703125 615.640625 403.101562 C 543.261719 457.386719 467.9375 507.882812 382.09375 537.761719 Z M 637.101562 385.847656 C 536.109375 345.453125 432.589844 309.261719 324.441406 295.375 C 284.042969 290.324219 235.230469 286.539062 188.519531 290.746094 C 195.675781 270.125 207.457031 250.769531 222.605469 235.199219 C 280.257812 177.128906 364.417969 179.234375 438.480469 197.75 C 539.472656 222.996094 632.894531 269.285156 725.46875 315.996094 C 719.578125 320.625 714.109375 324.832031 708.636719 329.460938 C 684.652344 347.976562 661.085938 366.914062 637.101562 385.847656 Z M 846.664062 468.328125 C 794.484375 449.390625 742.722656 428.769531 691.386719 407.730469 C 681.707031 403.523438 672.027344 399.734375 661.929688 395.949219 C 690.542969 373.222656 719.160156 350.082031 747.351562 327.355469 C 748.613281 327.777344 749.457031 328.617188 750.71875 329.039062 C 806.6875 357.65625 863.914062 385.429688 923.25 406.046875 C 903.050781 421.617188 883.273438 438.027344 863.496094 454.019531 C 858.023438 458.648438 852.554688 463.699219 846.664062 468.328125 Z M 1376.039062 509.566406 C 1297.347656 581.523438 1174.050781 565.953125 1079.789062 541.96875 C 1008.671875 523.875 938.398438 501.570312 869.386719 476.742188 C 893.371094 454.441406 917.777344 432.558594 943.027344 412.359375 C 971.640625 421.195312 1000.679688 427.929688 1030.976562 432.136719 C 1121.449219 444.339844 1249.796875 435.503906 1304.921875 350.921875 C 1317.964844 330.722656 1323.4375 310.523438 1322.59375 291.167969 C 1361.730469 304.632812 1395.816406 330.300781 1411.804688 369.859375 C 1432.003906 419.511719 1414.75 474.21875 1376.039062 509.566406 Z M 1376.039062 509.566406 " fill-opacity="1" fill-rule="nonzero"/><g clip-path="url(#bdf8c78a6c)"><g clip-path="url(#ac637c50c5)"><g transform="matrix(1, 0, 0, 1, 622, 391)"><g clip-path="url(#0eb5fd7a32)"><g clip-path="url(#139da1c3e0)"><g clip-path="url(#d4ef0d5e98)"><path fill="#ad8330" d="M 0.734375 0.402344 L 27.933594 0.402344 L 27.933594 14 L 0.734375 14 Z M 0.734375 0.402344 " fill-opacity="1" fill-rule="nonzero"/></g></g></g></g></g></g></svg>