<svg xmlns="http://www.w3.org/2000/svg" xmlns:xlink="http://www.w3.org/1999/xlink" width="1920" zoomAndPan="magnify" viewBox="0 0 1440 525.000007" height="700" preserveAspectRatio="xMidYMid meet" version="1.0"><defs><g/><clipPath id="0ff36ec1f8"><path d="M 703.488281 342.066406 L 1420.390625 342.066406 L 1420.390625 421.273438 L 703.488281 421.273438 Z M 703.488281 342.066406 " clip-rule="nonzero"/></clipPath><clipPath id="e2b9ece29f"><path d="M 0.488281 0.0664062 L 717.390625 0.0664062 L 717.390625 79.273438 L 0.488281 79.273438 Z M 0.488281 0.0664062 " clip-rule="nonzero"/></clipPath><clipPath id="0753daf498"><rect x="0" width="718" y="0" height="80"/></clipPath><clipPath id="070669834a"><path d="M 19.609375 143.535156 L 179 143.535156 L 179 420 L 19.609375 420 Z M 19.609375 143.535156 " clip-rule="nonzero"/></clipPath><clipPath id="9adb4ea711"><path d="M 186 143.535156 L 345.988281 143.535156 L 345.988281 420 L 186 420 Z M 186 143.535156 " clip-rule="nonzero"/></clipPath><clipPath id="1d8163c061"><path d="M 23 335 L 342 335 L 342 427.242188 L 23 427.242188 Z M 23 335 " clip-rule="nonzero"/></clipPath><clipPath id="e748c9f129"><rect x="0" width="1027" y="0" height="272"/></clipPath><clipPath id="2c9dccef70"><rect x="0" width="278" y="0" height="101"/></clipPath><clipPath id="128593d36e"><rect x="0" width="682" y="0" height="66"/></clipPath></defs><g clip-path="url(#0ff36ec1f8)"><g transform="matrix(1, 0, 0, 1, 703, 342)"><g clip-path="url(#0753daf498)"><g clip-path="url(#e2b9ece29f)"><path fill="#33a196" d="M 0.488281 0.0664062 L 717.398438 0.0664062 L 717.398438 79.273438 L 0.488281 79.273438 Z M 0.488281 0.0664062 " fill-opacity="1" fill-rule="nonzero"/></g></g></g></g><g clip-path="url(#070669834a)"><path fill="#ae8534" d="M 178.691406 143.566406 L 178.691406 327.304688 L 19.648438 419.113281 Z M 178.691406 143.566406 " fill-opacity="1" fill-rule="nonzero"/></g><g clip-path="url(#9adb4ea711)"><path fill="#33a196" d="M 345.945312 419.113281 L 186.90625 327.304688 L 186.90625 143.566406 Z M 345.945312 419.113281 " fill-opacity="1" fill-rule="nonzero"/></g><g clip-path="url(#1d8163c061)"><path fill="#1e7373" d="M 341.871094 427.511719 L 23.722656 427.511719 L 182.804688 335.675781 Z M 341.871094 427.511719 " fill-opacity="1" fill-rule="nonzero"/></g><g transform="matrix(1, 0, 0, 1, 396, 97)"><g clip-path="url(#e748c9f129)"><g fill="#33a196" fill-opacity="1"><g transform="translate(0.361375, 215.080088)"><g><path d="M 12.375 0 L 12.375 -163.84375 L 71.234375 -163.84375 C 92.304688 -163.84375 108.335938 -159.976562 119.328125 -152.25 C 130.316406 -144.519531 135.8125 -133.304688 135.8125 -118.609375 C 135.8125 -110.128906 133.859375 -102.882812 129.953125 -96.875 C 126.054688 -90.875 120.320312 -86.453125 112.75 -83.609375 C 121.300781 -81.359375 127.863281 -77.15625 132.4375 -71 C 137.019531 -64.851562 139.3125 -57.351562 139.3125 -48.5 C 139.3125 -32.445312 134.226562 -20.382812 124.0625 -12.3125 C 113.894531 -4.25 98.832031 -0.144531 78.875 0 Z M 51.875 -69.65625 L 51.875 -30.375 L 77.75 -30.375 C 84.882812 -30.375 90.363281 -32.003906 94.1875 -35.265625 C 98.007812 -38.535156 99.921875 -43.132812 99.921875 -49.0625 C 99.921875 -62.71875 93.132812 -69.582031 79.5625 -69.65625 Z M 51.875 -95.53125 L 72.46875 -95.53125 C 81.09375 -95.601562 87.242188 -97.175781 90.921875 -100.25 C 94.597656 -103.332031 96.4375 -107.875 96.4375 -113.875 C 96.4375 -120.78125 94.445312 -125.75 90.46875 -128.78125 C 86.488281 -131.820312 80.078125 -133.34375 71.234375 -133.34375 L 51.875 -133.34375 Z M 51.875 -95.53125 "/></g></g></g><g fill="#33a196" fill-opacity="1"><g transform="translate(149.005524, 215.080088)"><g><path d="M 54.46875 0 L 15.078125 0 L 15.078125 -163.84375 L 54.46875 -163.84375 Z M 54.46875 0 "/></g></g></g><g fill="#33a196" fill-opacity="1"><g transform="translate(218.545331, 215.080088)"><g><path d="M 96.890625 -43.546875 C 96.890625 -49.328125 94.84375 -53.828125 90.75 -57.046875 C 86.664062 -60.273438 79.484375 -63.613281 69.203125 -67.0625 C 58.921875 -70.507812 50.519531 -73.847656 44 -77.078125 C 22.769531 -87.503906 12.15625 -101.832031 12.15625 -120.0625 C 12.15625 -129.144531 14.796875 -137.15625 20.078125 -144.09375 C 25.367188 -151.03125 32.851562 -156.429688 42.53125 -160.296875 C 52.207031 -164.160156 63.085938 -166.09375 75.171875 -166.09375 C 86.941406 -166.09375 97.5 -163.988281 106.84375 -159.78125 C 116.1875 -155.582031 123.441406 -149.597656 128.609375 -141.828125 C 133.785156 -134.066406 136.375 -125.203125 136.375 -115.234375 L 97 -115.234375 C 97 -121.898438 94.953125 -127.070312 90.859375 -130.75 C 86.773438 -134.425781 81.242188 -136.265625 74.265625 -136.265625 C 67.210938 -136.265625 61.640625 -134.707031 57.546875 -131.59375 C 53.460938 -128.476562 51.421875 -124.523438 51.421875 -119.734375 C 51.421875 -115.523438 53.671875 -111.710938 58.171875 -108.296875 C 62.671875 -104.890625 70.582031 -101.363281 81.90625 -97.71875 C 93.238281 -94.082031 102.546875 -90.164062 109.828125 -85.96875 C 127.523438 -75.769531 136.375 -61.703125 136.375 -43.765625 C 136.375 -29.441406 130.972656 -18.191406 120.171875 -10.015625 C 109.367188 -1.835938 94.554688 2.25 75.734375 2.25 C 62.453125 2.25 50.425781 -0.128906 39.65625 -4.890625 C 28.894531 -9.660156 20.796875 -16.1875 15.359375 -24.46875 C 9.921875 -32.757812 7.203125 -42.304688 7.203125 -53.109375 L 46.8125 -53.109375 C 46.8125 -44.335938 49.078125 -37.867188 53.609375 -33.703125 C 58.148438 -29.535156 65.523438 -27.453125 75.734375 -27.453125 C 82.253906 -27.453125 87.410156 -28.859375 91.203125 -31.671875 C 94.992188 -34.484375 96.890625 -38.441406 96.890625 -43.546875 Z M 96.890625 -43.546875 "/></g></g></g><g fill="#33a196" fill-opacity="1"><g transform="translate(362.801046, 215.080088)"><g><path d="M 140.875 -163.84375 L 140.875 -56.59375 C 140.875 -44.445312 138.285156 -33.925781 133.109375 -25.03125 C 127.941406 -16.144531 120.519531 -9.375 110.84375 -4.71875 C 101.164062 -0.0703125 89.722656 2.25 76.515625 2.25 C 56.554688 2.25 40.835938 -2.925781 29.359375 -13.28125 C 17.890625 -23.632812 12.039062 -37.8125 11.8125 -55.8125 L 11.8125 -163.84375 L 51.53125 -163.84375 L 51.53125 -55.03125 C 51.988281 -37.09375 60.316406 -28.125 76.515625 -28.125 C 84.691406 -28.125 90.878906 -30.375 95.078125 -34.875 C 99.285156 -39.382812 101.390625 -46.703125 101.390625 -56.828125 L 101.390625 -163.84375 Z M 140.875 -163.84375 "/></g></g></g><g fill="#33a196" fill-opacity="1"><g transform="translate(515.946154, 215.080088)"><g><path d="M 68.078125 -60.984375 L 51.875 -43.203125 L 51.875 0 L 12.375 0 L 12.375 -163.84375 L 51.875 -163.84375 L 51.875 -91.59375 L 65.609375 -112.40625 L 100.9375 -163.84375 L 149.765625 -163.84375 L 94.40625 -91.375 L 149.765625 0 L 102.96875 0 Z M 68.078125 -60.984375 "/></g></g></g><g fill="#33a196" fill-opacity="1"><g transform="translate(663.35254, 215.080088)"><g><path d="M 64.25 -163.84375 L 100.828125 -49.84375 L 137.28125 -163.84375 L 189.265625 -163.84375 L 189.265625 0 L 149.65625 0 L 149.65625 -38.265625 L 153.484375 -116.578125 L 113.875 0 L 87.765625 0 L 48.046875 -116.6875 L 51.875 -38.265625 L 51.875 0 L 12.375 0 L 12.375 -163.84375 Z M 64.25 -163.84375 "/></g></g></g><g fill="#33a196" fill-opacity="1"><g transform="translate(867.358562, 215.080088)"><g><path d="M 105.4375 -30.609375 L 51.3125 -30.609375 L 41.859375 0 L -0.34375 0 L 59.75 -163.84375 L 96.890625 -163.84375 L 157.421875 0 L 115 0 Z M 60.765625 -61.109375 L 95.984375 -61.109375 L 78.3125 -117.921875 Z M 60.765625 -61.109375 "/></g></g></g></g></g><g transform="matrix(1, 0, 0, 1, 375, 313)"><g clip-path="url(#2c9dccef70)"><g fill="#33a196" fill-opacity="1"><g transform="translate(0.420277, 79.501344)"><g><path d="M 51.453125 -7.90625 C 49.410156 -4.976562 46.5625 -2.789062 42.90625 -1.34375 C 39.257812 0.101562 35.007812 0.828125 30.15625 0.828125 C 25.238281 0.828125 20.878906 -0.320312 17.078125 -2.625 C 13.273438 -4.925781 10.332031 -8.195312 8.25 -12.4375 C 6.164062 -16.6875 5.097656 -21.613281 5.046875 -27.21875 L 5.046875 -32.46875 C 5.046875 -41.539062 7.160156 -48.570312 11.390625 -53.5625 C 15.628906 -58.550781 21.578125 -61.046875 29.234375 -61.046875 C 35.523438 -61.046875 40.585938 -59.4375 44.421875 -56.21875 C 48.253906 -53.007812 50.597656 -48.457031 51.453125 -42.5625 L 43.515625 -42.5625 C 42.023438 -50.53125 37.28125 -54.515625 29.28125 -54.515625 C 23.957031 -54.515625 19.921875 -52.644531 17.171875 -48.90625 C 14.429688 -45.164062 13.050781 -39.753906 13.03125 -32.671875 L 13.03125 -27.75 C 13.03125 -21 14.570312 -15.628906 17.65625 -11.640625 C 20.75 -7.660156 24.925781 -5.671875 30.1875 -5.671875 C 33.164062 -5.671875 35.769531 -6 38 -6.65625 C 40.238281 -7.320312 42.085938 -8.441406 43.546875 -10.015625 L 43.546875 -23.53125 L 29.609375 -23.53125 L 29.609375 -29.984375 L 51.453125 -29.984375 Z M 51.453125 -7.90625 "/></g></g></g><g fill="#33a196" fill-opacity="1"><g transform="translate(58.109343, 79.501344)"><g><path d="M 29.078125 -24.359375 L 14.9375 -24.359375 L 14.9375 0 L 6.953125 0 L 6.953125 -60.21875 L 26.890625 -60.21875 C 33.671875 -60.21875 38.882812 -58.671875 42.53125 -55.578125 C 46.1875 -52.492188 48.015625 -48.003906 48.015625 -42.109375 C 48.015625 -38.359375 47 -35.085938 44.96875 -32.296875 C 42.945312 -29.515625 40.128906 -27.4375 36.515625 -26.0625 L 50.671875 -0.5 L 50.671875 0 L 42.140625 0 Z M 14.9375 -30.859375 L 27.125 -30.859375 C 31.070312 -30.859375 34.207031 -31.875 36.53125 -33.90625 C 38.863281 -35.945312 40.03125 -38.679688 40.03125 -42.109375 C 40.03125 -45.828125 38.921875 -48.675781 36.703125 -50.65625 C 34.484375 -52.644531 31.28125 -53.65625 27.09375 -53.6875 L 14.9375 -53.6875 Z M 14.9375 -30.859375 "/></g></g></g><g fill="#33a196" fill-opacity="1"><g transform="translate(110.256951, 79.501344)"><g><path d="M 53.3125 -28.171875 C 53.3125 -22.265625 52.316406 -17.113281 50.328125 -12.71875 C 48.347656 -8.320312 45.535156 -4.960938 41.890625 -2.640625 C 38.253906 -0.328125 34.007812 0.828125 29.15625 0.828125 C 24.414062 0.828125 20.210938 -0.332031 16.546875 -2.65625 C 12.878906 -4.988281 10.03125 -8.3125 8 -12.625 C 5.976562 -16.945312 4.9375 -21.945312 4.875 -27.625 L 4.875 -31.96875 C 4.875 -37.757812 5.878906 -42.875 7.890625 -47.3125 C 9.910156 -51.75 12.757812 -55.144531 16.4375 -57.5 C 20.125 -59.863281 24.335938 -61.046875 29.078125 -61.046875 C 33.898438 -61.046875 38.148438 -59.878906 41.828125 -57.546875 C 45.515625 -55.222656 48.347656 -51.847656 50.328125 -47.421875 C 52.316406 -42.992188 53.3125 -37.84375 53.3125 -31.96875 Z M 45.40625 -32.046875 C 45.40625 -39.191406 43.972656 -44.671875 41.109375 -48.484375 C 38.242188 -52.304688 34.234375 -54.21875 29.078125 -54.21875 C 24.054688 -54.21875 20.101562 -52.304688 17.21875 -48.484375 C 14.34375 -44.671875 12.863281 -39.375 12.78125 -32.59375 L 12.78125 -28.171875 C 12.78125 -21.242188 14.234375 -15.800781 17.140625 -11.84375 C 20.046875 -7.894531 24.050781 -5.921875 29.15625 -5.921875 C 34.28125 -5.921875 38.25 -7.785156 41.0625 -11.515625 C 43.875 -15.253906 45.320312 -20.613281 45.40625 -27.59375 Z M 45.40625 -32.046875 "/></g></g></g><g fill="#33a196" fill-opacity="1"><g transform="translate(168.483612, 79.501344)"><g><path d="M 49.375 -60.21875 L 49.375 -19.265625 C 49.351562 -13.585938 47.570312 -8.941406 44.03125 -5.328125 C 40.488281 -1.722656 35.679688 0.300781 29.609375 0.75 L 27.5 0.828125 C 20.914062 0.828125 15.664062 -0.945312 11.75 -4.5 C 7.832031 -8.0625 5.847656 -12.957031 5.796875 -19.1875 L 5.796875 -60.21875 L 13.65625 -60.21875 L 13.65625 -19.4375 C 13.65625 -15.082031 14.851562 -11.695312 17.25 -9.28125 C 19.644531 -6.875 23.0625 -5.671875 27.5 -5.671875 C 32 -5.671875 35.441406 -6.867188 37.828125 -9.265625 C 40.210938 -11.660156 41.40625 -15.035156 41.40625 -19.390625 L 41.40625 -60.21875 Z M 49.375 -60.21875 "/></g></g></g><g fill="#33a196" fill-opacity="1"><g transform="translate(223.401941, 79.501344)"><g><path d="M 14.9375 -23.578125 L 14.9375 0 L 6.984375 0 L 6.984375 -60.21875 L 29.203125 -60.21875 C 35.785156 -60.21875 40.945312 -58.535156 44.6875 -55.171875 C 48.425781 -51.804688 50.296875 -47.351562 50.296875 -41.8125 C 50.296875 -35.96875 48.46875 -31.46875 44.8125 -28.3125 C 41.15625 -25.15625 35.921875 -23.578125 29.109375 -23.578125 Z M 14.9375 -30.0625 L 29.203125 -30.0625 C 33.441406 -30.0625 36.691406 -31.0625 38.953125 -33.0625 C 41.222656 -35.0625 42.359375 -37.953125 42.359375 -41.734375 C 42.359375 -45.316406 41.222656 -48.179688 38.953125 -50.328125 C 36.691406 -52.484375 33.59375 -53.601562 29.65625 -53.6875 L 14.9375 -53.6875 Z M 14.9375 -30.0625 "/></g></g></g></g></g><g transform="matrix(1, 0, 0, 1, 721, 349)"><g clip-path="url(#128593d36e)"><g fill="#ffffff" fill-opacity="1"><g transform="translate(0.940381, 51.376816)"><g><path d="M 4.515625 0 L 4.515625 -38.921875 L 17.25 -38.921875 C 21.46875 -38.921875 24.640625 -38.046875 26.765625 -36.296875 C 28.898438 -34.554688 29.96875 -31.972656 29.96875 -28.546875 C 29.96875 -26.734375 29.445312 -25.125 28.40625 -23.71875 C 27.375 -22.320312 25.96875 -21.242188 24.1875 -20.484375 C 26.289062 -19.890625 27.953125 -18.769531 29.171875 -17.125 C 30.398438 -15.476562 31.015625 -13.515625 31.015625 -11.234375 C 31.015625 -7.734375 29.878906 -4.984375 27.609375 -2.984375 C 25.347656 -0.992188 22.148438 0 18.015625 0 Z M 9.65625 -18.203125 L 9.65625 -4.203125 L 18.125 -4.203125 C 20.507812 -4.203125 22.390625 -4.816406 23.765625 -6.046875 C 25.148438 -7.285156 25.84375 -8.992188 25.84375 -11.171875 C 25.84375 -15.859375 23.296875 -18.203125 18.203125 -18.203125 Z M 9.65625 -22.328125 L 17.40625 -22.328125 C 19.644531 -22.328125 21.4375 -22.882812 22.78125 -24 C 24.132812 -25.125 24.8125 -26.648438 24.8125 -28.578125 C 24.8125 -30.710938 24.1875 -32.265625 22.9375 -33.234375 C 21.6875 -34.210938 19.789062 -34.703125 17.25 -34.703125 L 9.65625 -34.703125 Z M 9.65625 -22.328125 "/></g></g></g><g fill="#ffffff" fill-opacity="1"><g transform="translate(35.02884, 51.376816)"><g><path d="M 10.03125 0 L 4.890625 0 L 4.890625 -38.921875 L 10.03125 -38.921875 Z M 10.03125 0 "/></g></g></g><g fill="#ffffff" fill-opacity="1"><g transform="translate(49.920821, 51.376816)"><g><path d="M 15.984375 -17.34375 C 11.585938 -18.613281 8.382812 -20.171875 6.375 -22.015625 C 4.375 -23.859375 3.375 -26.132812 3.375 -28.84375 C 3.375 -31.90625 4.597656 -34.4375 7.046875 -36.4375 C 9.492188 -38.445312 12.675781 -39.453125 16.59375 -39.453125 C 19.269531 -39.453125 21.65625 -38.9375 23.75 -37.90625 C 25.84375 -36.875 27.460938 -35.445312 28.609375 -33.625 C 29.765625 -31.8125 30.34375 -29.828125 30.34375 -27.671875 L 25.1875 -27.671875 C 25.1875 -30.023438 24.4375 -31.875 22.9375 -33.21875 C 21.4375 -34.5625 19.320312 -35.234375 16.59375 -35.234375 C 14.070312 -35.234375 12.101562 -34.675781 10.6875 -33.5625 C 9.269531 -32.445312 8.5625 -30.898438 8.5625 -28.921875 C 8.5625 -27.335938 9.234375 -26 10.578125 -24.90625 C 11.921875 -23.8125 14.207031 -22.804688 17.4375 -21.890625 C 20.675781 -20.984375 23.207031 -19.984375 25.03125 -18.890625 C 26.863281 -17.796875 28.21875 -16.515625 29.09375 -15.046875 C 29.976562 -13.585938 30.421875 -11.867188 30.421875 -9.890625 C 30.421875 -6.734375 29.191406 -4.207031 26.734375 -2.3125 C 24.273438 -0.414062 20.988281 0.53125 16.875 0.53125 C 14.195312 0.53125 11.695312 0.0195312 9.375 -1 C 7.0625 -2.03125 5.273438 -3.4375 4.015625 -5.21875 C 2.765625 -7 2.140625 -9.019531 2.140625 -11.28125 L 7.296875 -11.28125 C 7.296875 -8.925781 8.164062 -7.066406 9.90625 -5.703125 C 11.644531 -4.335938 13.96875 -3.65625 16.875 -3.65625 C 19.582031 -3.65625 21.65625 -4.207031 23.09375 -5.3125 C 24.539062 -6.425781 25.265625 -7.9375 25.265625 -9.84375 C 25.265625 -11.75 24.59375 -13.222656 23.25 -14.265625 C 21.914062 -15.304688 19.492188 -16.332031 15.984375 -17.34375 Z M 15.984375 -17.34375 "/></g></g></g><g fill="#ffffff" fill-opacity="1"><g transform="translate(82.405118, 51.376816)"><g><path d="M 31.921875 -38.921875 L 31.921875 -12.453125 C 31.898438 -8.785156 30.742188 -5.785156 28.453125 -3.453125 C 26.160156 -1.117188 23.054688 0.191406 19.140625 0.484375 L 17.78125 0.53125 C 13.519531 0.53125 10.125 -0.613281 7.59375 -2.90625 C 5.0625 -5.207031 3.78125 -8.375 3.75 -12.40625 L 3.75 -38.921875 L 8.828125 -38.921875 L 8.828125 -12.5625 C 8.828125 -9.75 9.597656 -7.5625 11.140625 -6 C 12.691406 -4.4375 14.90625 -3.65625 17.78125 -3.65625 C 20.6875 -3.65625 22.910156 -4.429688 24.453125 -5.984375 C 25.992188 -7.535156 26.765625 -9.71875 26.765625 -12.53125 L 26.765625 -38.921875 Z M 31.921875 -38.921875 "/></g></g></g><g fill="#ffffff" fill-opacity="1"><g transform="translate(117.910582, 51.376816)"><g><path d="M 14.40625 -18.09375 L 9.65625 -13.15625 L 9.65625 0 L 4.515625 0 L 4.515625 -38.921875 L 9.65625 -38.921875 L 9.65625 -19.671875 L 26.953125 -38.921875 L 33.15625 -38.921875 L 17.828125 -21.734375 L 34.359375 0 L 28.203125 0 Z M 14.40625 -18.09375 "/></g></g></g><g fill="#ffffff" fill-opacity="1"><g transform="translate(152.245632, 51.376816)"><g/></g></g><g fill="#ffffff" fill-opacity="1"><g transform="translate(165.80081, 51.376816)"><g/></g></g><g fill="#ffffff" fill-opacity="1"><g transform="translate(179.359173, 51.376816)"><g><path d="M 9.65625 -15.234375 L 9.65625 0 L 4.515625 0 L 4.515625 -38.921875 L 18.875 -38.921875 C 23.132812 -38.921875 26.472656 -37.832031 28.890625 -35.65625 C 31.304688 -33.488281 32.515625 -30.613281 32.515625 -27.03125 C 32.515625 -23.25 31.332031 -20.335938 28.96875 -18.296875 C 26.601562 -16.253906 23.222656 -15.234375 18.828125 -15.234375 Z M 9.65625 -19.4375 L 18.875 -19.4375 C 21.613281 -19.4375 23.710938 -20.082031 25.171875 -21.375 C 26.640625 -22.664062 27.375 -24.53125 27.375 -26.96875 C 27.375 -29.289062 26.640625 -31.144531 25.171875 -32.53125 C 23.710938 -33.925781 21.710938 -34.648438 19.171875 -34.703125 L 9.65625 -34.703125 Z M 9.65625 -19.4375 "/></g></g></g><g fill="#ffffff" fill-opacity="1"><g transform="translate(210.212532, 51.376816)"><g><path d="M 26.015625 -10.15625 L 9.703125 -10.15625 L 6.046875 0 L 0.75 0 L 15.609375 -38.921875 L 20.109375 -38.921875 L 35 0 L 29.734375 0 Z M 11.25 -14.375 L 24.484375 -14.375 L 17.859375 -32.59375 Z M 11.25 -14.375 "/></g></g></g><g fill="#ffffff" fill-opacity="1"><g transform="translate(242.482907, 51.376816)"><g><path d="M 31.40625 -34.703125 L 18.90625 -34.703125 L 18.90625 0 L 13.796875 0 L 13.796875 -34.703125 L 1.3125 -34.703125 L 1.3125 -38.921875 L 31.40625 -38.921875 Z M 31.40625 -34.703125 "/></g></g></g><g fill="#ffffff" fill-opacity="1"><g transform="translate(275.154351, 51.376816)"><g><path d="M 18.796875 -15.75 L 9.65625 -15.75 L 9.65625 0 L 4.484375 0 L 4.484375 -38.921875 L 17.375 -38.921875 C 21.757812 -38.921875 25.128906 -37.921875 27.484375 -35.921875 C 29.847656 -33.929688 31.03125 -31.03125 31.03125 -27.21875 C 31.03125 -24.789062 30.375 -22.675781 29.0625 -20.875 C 27.757812 -19.070312 25.941406 -17.726562 23.609375 -16.84375 L 32.75 -0.328125 L 32.75 0 L 27.234375 0 Z M 9.65625 -19.9375 L 17.53125 -19.9375 C 20.082031 -19.9375 22.109375 -20.597656 23.609375 -21.921875 C 25.117188 -23.242188 25.875 -25.007812 25.875 -27.21875 C 25.875 -29.625 25.15625 -31.46875 23.71875 -32.75 C 22.289062 -34.03125 20.222656 -34.679688 17.515625 -34.703125 L 9.65625 -34.703125 Z M 9.65625 -19.9375 "/></g></g></g><g fill="#ffffff" fill-opacity="1"><g transform="translate(308.868505, 51.376816)"><g><path d="M 10.03125 0 L 4.890625 0 L 4.890625 -38.921875 L 10.03125 -38.921875 Z M 10.03125 0 "/></g></g></g><g fill="#ffffff" fill-opacity="1"><g transform="translate(323.760486, 51.376816)"><g><path d="M 34.453125 -18.203125 C 34.453125 -14.390625 33.8125 -11.0625 32.53125 -8.21875 C 31.25 -5.375 29.429688 -3.203125 27.078125 -1.703125 C 24.722656 -0.210938 21.976562 0.53125 18.84375 0.53125 C 15.78125 0.53125 13.0625 -0.21875 10.6875 -1.71875 C 8.320312 -3.226562 6.484375 -5.375 5.171875 -8.15625 C 3.859375 -10.945312 3.1875 -14.179688 3.15625 -17.859375 L 3.15625 -20.671875 C 3.15625 -24.410156 3.804688 -27.710938 5.109375 -30.578125 C 6.410156 -33.453125 8.25 -35.648438 10.625 -37.171875 C 13.007812 -38.691406 15.734375 -39.453125 18.796875 -39.453125 C 21.910156 -39.453125 24.65625 -38.695312 27.03125 -37.1875 C 29.414062 -35.6875 31.25 -33.503906 32.53125 -30.640625 C 33.8125 -27.785156 34.453125 -24.460938 34.453125 -20.671875 Z M 29.359375 -20.71875 C 29.359375 -25.332031 28.429688 -28.875 26.578125 -31.34375 C 24.722656 -33.8125 22.128906 -35.046875 18.796875 -35.046875 C 15.546875 -35.046875 12.988281 -33.8125 11.125 -31.34375 C 9.269531 -28.875 8.316406 -25.445312 8.265625 -21.0625 L 8.265625 -18.203125 C 8.265625 -13.734375 9.203125 -10.21875 11.078125 -7.65625 C 12.960938 -5.101562 15.550781 -3.828125 18.84375 -3.828125 C 22.15625 -3.828125 24.71875 -5.03125 26.53125 -7.4375 C 28.351562 -9.851562 29.296875 -13.316406 29.359375 -17.828125 Z M 29.359375 -20.71875 "/></g></g></g><g fill="#ffffff" fill-opacity="1"><g transform="translate(360.682955, 51.376816)"><g><path d="M 31.40625 -34.703125 L 18.90625 -34.703125 L 18.90625 0 L 13.796875 0 L 13.796875 -34.703125 L 1.3125 -34.703125 L 1.3125 -38.921875 L 31.40625 -38.921875 Z M 31.40625 -34.703125 "/></g></g></g><g fill="#ffffff" fill-opacity="1"><g transform="translate(392.288152, 51.376816)"><g/></g></g><g fill="#ffffff" fill-opacity="1"><g transform="translate(405.84333, 51.376816)"><g/></g></g><g fill="#ffffff" fill-opacity="1"><g transform="translate(419.401693, 51.376816)"><g><path d="M 11.140625 -38.921875 L 23.875 -7.171875 L 36.59375 -38.921875 L 43.25 -38.921875 L 43.25 0 L 38.125 0 L 38.125 -15.15625 L 38.609375 -31.515625 L 25.828125 0 L 21.890625 0 L 9.140625 -31.4375 L 9.65625 -15.15625 L 9.65625 0 L 4.515625 0 L 4.515625 -38.921875 Z M 11.140625 -38.921875 "/></g></g></g><g fill="#ffffff" fill-opacity="1"><g transform="translate(467.686985, 51.376816)"><g><path d="M 26.015625 -10.15625 L 9.703125 -10.15625 L 6.046875 0 L 0.75 0 L 15.609375 -38.921875 L 20.109375 -38.921875 L 35 0 L 29.734375 0 Z M 11.25 -14.375 L 24.484375 -14.375 L 17.859375 -32.59375 Z M 11.25 -14.375 "/></g></g></g><g fill="#ffffff" fill-opacity="1"><g transform="translate(503.406337, 51.376816)"><g><path d="M 34.4375 0 L 29.265625 0 L 9.671875 -30 L 9.671875 0 L 4.515625 0 L 4.515625 -38.921875 L 9.671875 -38.921875 L 29.328125 -8.796875 L 29.328125 -38.921875 L 34.4375 -38.921875 Z M 34.4375 0 "/></g></g></g><g fill="#ffffff" fill-opacity="1"><g transform="translate(542.440958, 51.376816)"><g><path d="M 33.25 -5.109375 C 31.9375 -3.210938 30.097656 -1.796875 27.734375 -0.859375 C 25.367188 0.0664062 22.617188 0.53125 19.484375 0.53125 C 16.316406 0.53125 13.503906 -0.210938 11.046875 -1.703125 C 8.585938 -3.191406 6.679688 -5.304688 5.328125 -8.046875 C 3.984375 -10.785156 3.296875 -13.96875 3.265625 -17.59375 L 3.265625 -20.984375 C 3.265625 -26.847656 4.628906 -31.390625 7.359375 -34.609375 C 10.097656 -37.835938 13.945312 -39.453125 18.90625 -39.453125 C 22.96875 -39.453125 26.234375 -38.414062 28.703125 -36.34375 C 31.179688 -34.269531 32.695312 -31.328125 33.25 -27.515625 L 28.125 -27.515625 C 27.164062 -32.660156 24.097656 -35.234375 18.921875 -35.234375 C 15.484375 -35.234375 12.878906 -34.023438 11.109375 -31.609375 C 9.335938 -29.191406 8.441406 -25.695312 8.421875 -21.125 L 8.421875 -17.9375 C 8.421875 -13.570312 9.414062 -10.097656 11.40625 -7.515625 C 13.40625 -4.941406 16.109375 -3.65625 19.515625 -3.65625 C 21.441406 -3.65625 23.125 -3.867188 24.5625 -4.296875 C 26.007812 -4.734375 27.207031 -5.457031 28.15625 -6.46875 L 28.15625 -15.21875 L 19.140625 -15.21875 L 19.140625 -19.375 L 33.25 -19.375 Z M 33.25 -5.109375 "/></g></g></g><g fill="#ffffff" fill-opacity="1"><g transform="translate(579.737743, 51.376816)"><g><path d="M 31.921875 -38.921875 L 31.921875 -12.453125 C 31.898438 -8.785156 30.742188 -5.785156 28.453125 -3.453125 C 26.160156 -1.117188 23.054688 0.191406 19.140625 0.484375 L 17.78125 0.53125 C 13.519531 0.53125 10.125 -0.613281 7.59375 -2.90625 C 5.0625 -5.207031 3.78125 -8.375 3.75 -12.40625 L 3.75 -38.921875 L 8.828125 -38.921875 L 8.828125 -12.5625 C 8.828125 -9.75 9.597656 -7.5625 11.140625 -6 C 12.691406 -4.4375 14.90625 -3.65625 17.78125 -3.65625 C 20.6875 -3.65625 22.910156 -4.429688 24.453125 -5.984375 C 25.992188 -7.535156 26.765625 -9.71875 26.765625 -12.53125 L 26.765625 -38.921875 Z M 31.921875 -38.921875 "/></g></g></g><g fill="#ffffff" fill-opacity="1"><g transform="translate(615.243207, 51.376816)"><g><path d="M 9.671875 -4.203125 L 28.125 -4.203125 L 28.125 0 L 4.515625 0 L 4.515625 -38.921875 L 9.671875 -38.921875 Z M 9.671875 -4.203125 "/></g></g></g><g fill="#ffffff" fill-opacity="1"><g transform="translate(645.214315, 51.376816)"><g><path d="M 26.015625 -10.15625 L 9.703125 -10.15625 L 6.046875 0 L 0.75 0 L 15.609375 -38.921875 L 20.109375 -38.921875 L 35 0 L 29.734375 0 Z M 11.25 -14.375 L 24.484375 -14.375 L 17.859375 -32.59375 Z M 11.25 -14.375 "/></g></g></g></g></g></svg>